name Walk10.mot
datacolumns 19
datarows 10
range 1.12000000 1.12900000
endheader

                time	   L_ground_force_vx	   L_ground_force_vy	   L_ground_force_vz	   L_ground_force_px	   L_ground_force_py	   L_ground_force_pz	   R_ground_force_vx	   R_ground_force_vy	   R_ground_force_vz	   R_ground_force_px	   R_ground_force_py	   R_ground_force_pz	   L_ground_torque_x	   L_ground_torque_y	   L_ground_torque_z	   R_ground_torque_x	   R_ground_torque_y	   R_ground_torque_z	
          1.12000000	          0.00000001	         -0.00000008	          0.00000001	         -0.00000000	          0.00000000	         -0.00000000	         -4.39324277	         90.11163660	          9.40351306	         -0.00141810	          0.00000000	          0.00149772	          0.00000000	          0.00000000	          0.00000000	          0.00000000	          0.00146460	          0.00000000	
          1.12100000	          0.00000001	         -0.00000008	          0.00000001	         -0.00000000	          0.00000000	         -0.00000000	         -6.00925781	         99.31868856	          9.74979845	         -0.01237812	          0.00000000	          0.01709083	          0.00000000	          0.00000000	          0.00000000	          0.00000000	         -0.01276526	          0.00000000	
          1.12200000	          0.00000001	         -0.00000009	          0.00000001	         -0.00000000	          0.00000000	         -0.00000000	         -7.65867652	        108.76044201	         10.10644018	         -0.02329586	          0.00000000	          0.03264299	          0.00000000	          0.00000000	          0.00000000	          0.00000000	         -0.02695828	          0.00000000	
          1.12300000	          0.00000001	         -0.00000009	          0.00000001	         -0.00000000	          0.00000000	         -0.00000000	         -9.33947121	        118.42368126	         10.47259728	         -0.03413871	          0.00000000	          0.04810911	          0.00000000	          0.00000000	          0.00000000	          0.00000000	         -0.04107511	          0.00000000	
          1.12400000	          0.00000001	         -0.00000009	          0.00000001	         -0.00000000	          0.00000000	         -0.00000000	        -11.04950482	        128.29350914	         10.84726858	         -0.04487391	          0.00000000	          0.06344395	          0.00000000	          0.00000000	          0.00000000	          0.00000000	         -0.05507616	          0.00000000	
          1.12500000	          0.00000001	         -0.00000010	          0.00000001	         -0.00000000	          0.00000000	         -0.00000000	        -12.78655208	        138.35328119	         11.22927611	         -0.05546941	          0.00000000	          0.07860322	          0.00000000	          0.00000000	          0.00000000	          0.00000000	         -0.06892237	          0.00000000	
          1.12600000	          0.00000001	         -0.00000010	          0.00000001	         -0.00000000	          0.00000000	         -0.00000000	        -14.54836506	        148.58463612	         11.61723931	         -0.06589509	          0.00000000	          0.09354548	          0.00000000	          0.00000000	          0.00000000	          0.00000000	         -0.08257650	          0.00000000	
          1.12700000	          0.00000001	         -0.00000010	          0.00000001	         -0.00000000	          0.00000000	         -0.00000000	        -16.33275616	        158.96760502	         12.00954771	         -0.07612365	          0.00000000	          0.10823321	          0.00000000	          0.00000000	          0.00000000	          0.00000000	         -0.09600440	          0.00000000	
          1.12800000	          0.00000001	         -0.00000011	          0.00000001	         -0.00000000	          0.00000000	         -0.00000000	        -18.13767903	        169.48078875	         12.40433804	         -0.08613070	          0.00000000	          0.12263304	          0.00000000	          0.00000000	          0.00000000	          0.00000000	         -0.10917571	          0.00000000	
          1.12900000	          0.00000001	         -0.00000011	          0.00000001	         -0.00000000	          0.00000000	         -0.00000000	        -19.96130854	        180.10161975	         12.79947607	         -0.09589468	          0.00000000	          0.13671547	          0.00000000	          0.00000000	          0.00000000	          0.00000000	         -0.12206409	          0.00000000	
